<?xml version="1.0" encoding="utf-8"?>
<!-- Generator: Adobe Illustrator 20.1.0, SVG Export Plug-In . SVG Version: 6.00 Build 0)  -->
<svg version="1.1" id="Layer_1" xmlns="http://www.w3.org/2000/svg" xmlns:xlink="http://www.w3.org/1999/xlink" x="0px" y="0px"
	 viewBox="0 0 1000 255" style="enable-background:new 0 0 1000 255;" xml:space="preserve">
<style type="text/css">
	.st0{fill:#1F4F7C;}
	.st1{fill:#C3AA00;stroke:#9C9700;stroke-width:1.5;stroke-miterlimit:10;}
</style>
<path class="st0" d="M860,66.1c2.3,0.3,4.5,1.3,6.8,1.5c2,2,1.7,4.8,2.2,7.3c0.3,1-0.8,1.6-1.2,2.4c-1,0-2.1,0-3.1,0
	c-1-1.2-2.5-2-2.9-3.6c-0.7-2.3-1.9-4.5-2.3-7L860,66.1z"/>
<path class="st0" d="M589.9,63.7c2-0.3,4.1,0,6.1-0.1c1.5,4.6-0.3,9.6-2.9,13.4c-1,1.3-0.9,3.1-1.4,4.6c-5,12.2-5.6,25.6-8.1,38.5
	c-0.4,1.7-1.1,3.4-1.3,5.2c-0.9,6.6-2,13.2-2.1,19.8c0.2,1.8-1,3.4-0.9,5.1c-0.2,3.4-0.6,6.8-0.6,10.3c0.1,1-0.5,1.9-0.9,2.7
	c-1.3-1.3-1.4-3.1-1.7-4.7c-1.4-11-4.9-21.5-7.4-32.3c-0.6-3.6-1-7.2-2.1-10.7c-0.9-2.1-0.4-4.5-1.6-6.5c-1.7-6.7-2.4-13.6-4.3-20.1
	c-0.2-2.8,0.1-5.7-0.2-8.5c1.2-0.5,2.3-0.7,3.6-0.5c0.5,1.5,0.9,3,0.9,4.5c0,2.7,0.8,5.3,0.9,8.1c0.1,2.3,1.3,4.5,1.5,6.9
	c0.5,3.8,1.6,7.5,2.1,11.3c0.5,3,1.1,5.9,2,8.7c1.4,3.1,1.5,6.7,2.6,9.9c0.5,1.6,1.2,3.2,2.7,4.1c2.8-5.8,2.6-12.4,3.1-18.6
	c0.3-2.3,0.1-4.5-0.1-6.8c0.2-5.5,0.9-11,2.1-16.4c0.4-2.1,1.5-4.1,1.9-6.3c0.9-5,1.1-10.2,2.4-15.1C587,67.9,588.2,65.6,589.9,63.7
	z"/>
<path class="st0" d="M875.8,155.3c-4.1-4.2-8.7-8.1-11.4-13.6c-2.2-3.1-3.2-6.8-4.8-10.2c-1.5-5.2-3.4-10.5-3-16.1
	c0.3-3.5,0.5-7.1,0.7-10.7c-0.3,0-0.9-0.1-1.3-0.2c-1.3,2.3-3.1,4.3-3.5,7c-0.5,3.4-1.6,6.8-2.7,10.2c-0.5,1.9-1.6,3.5-1.7,5.6
	c-0.3,3-1.7,5.6-2.4,8.5c-0.5,2.1-1.6,4-2.7,5.9c-2.3-1.9-2.5-5.1-3.4-7.7c-1.3-3.4-1.4-7-1.9-10.5c-0.9-1.6-1.2-3.3-0.9-5.1
	c2.4-2.7,4.7-5.5,7-8.3c2.7-3.4,4.1-7.7,6.3-11.4c1.6-4,3.3-8.1,3.1-12.6c-4.2-1.3-8.4-3.2-12.8-3c-2.3-0.2-4.3,1.2-6.1,2.4
	c-1.3,2.7-2.3,5.4-3.1,8.1c0,5.4,1.1,10.7,1.2,16.1c0.4,6.1,1.3,12.2,0.9,18.4c1,4.8,0.6,9.7,1.5,14.5c1.3,3.4,2.2,7,3.5,10.6
	c0.9,1.1,1.7,2.3,2.5,3.4c2.3,0.9,4-1.4,4.5-3.4c0.9-5,1-10.3,3-15c0.6-1.6,1.1-3.6,2.9-4.3c1.3-0.9,3-1.6,4.5-0.9
	c0.7,0.9,1.3,1.8,1.5,2.9c0.7,3.5,1.3,7,2.2,10.5c2,2.3,3.3,5.4,6,7.1c0.3,0.7,0.6,1.5,0.9,2.2c1.1,1.1,2.3,2.2,3.4,3.3
	c1.9,1.9,3.3,4.1,5.2,5.9c0.1,0.2,0.3,0.7,0.4,0.9c3.1,2.9,5.9,6.3,9.6,8.4c1.1,0.4,2.3,0.3,3.4,0.2c1-1.1,2.1-2,3.3-2.9
	C886.6,166.1,881.1,160.7,875.8,155.3z M835,100.6c0.6-2.4,0.7-5,2.2-7.1c1.1-1.6,1.8-3.4,2.9-4.9c1.9-0.4,3.8-0.2,5.6-0.2
	c0.4,0.7,0.9,1.5,1.1,2.3c-0.4,2.1-0.8,4.2-1.7,6.1c-2.4,3.4-4.9,6.7-7.9,9.6C836.3,104.5,835.6,102.5,835,100.6z"/>
<path class="st0" d="M498.9,81.4c1.4-0.2,2.9-0.3,4.3-0.5c1.1,0.6,2.2,1.1,3.2,1.8c0,1.6-0.3,3.1,0,4.7c-0.2,0.5-0.5,1-0.8,1.6
	c-2.2,2.4-5.6,2.1-8.5,1.2c-0.3-0.7-0.5-1.3-0.9-2C496.5,85.6,497.5,83.4,498.9,81.4z"/>
<path class="st0" d="M644.1,113c-0.6-0.9-1.8-0.7-2.7-0.5c-2.6,0.4-4,2.9-5.7,4.5c-1.6,1.3-2.2,3.4-2.6,5.4c-1.3,11-2.5,21.9-4,32.8
	c-0.2,0.9-0.5,1.8-0.9,2.7c-3-2.7-2.3-7-3.2-10.6c-0.9-7-0.6-14.3-0.7-21.4c1.7-3.7,2-8.1,0.8-12.1c-0.5,0-1.5,0-2,0
	c-1.1,2-1.8,4.3-3,6.3c-0.9,1.7-0.9,3.8-1.5,5.6c-1.2,5.7-4.1,10.9-5.2,16.6c-0.6,3.2-2.1,6.2-2.7,9.4c-0.7,3.6-2.5,6.9-4.4,10.1
	c-0.7,0.2-1.5,0.4-2.2,0.5c-1.3-0.6-2.9-1-3.4-2.4c-0.7-1.7-1.7-3.3-2.4-5c-0.7-2.7-0.3-5.6-0.7-8.4c-0.4-3-0.7-6-0.5-9
	c2.6-1.3,4.9-3,7.1-4.8c2-1.7,4-3.5,4.9-6.1c1.4-1.9,1.3-4.3,2.7-6.2c1-3.7,2.2-7.4,2.8-11.1c-0.2-0.7-0.9-1.2-1.4-1.6
	c-4.9-2-10.3-2.7-15.7-2.7c-1.1,0.4-2.1,1-3.2,1.5c-1.7,9.2-1.7,18.6-1,27.8c0.8,6.4,2,12.8,3.2,19.1c1,3.8,1.1,7.8,2.6,11.4
	c1.2,3.3,1.3,6.8,2.3,10.2c0.5,0.1,1.5,0.2,2,0.3c2.3-2.7,2.7-6.4,4.4-9.6c2.3-7,4.9-13.9,6.9-21.1c1.1-2.3,2.6-4.4,3.8-6.7
	c0.3-0.2,0.9-0.5,1.1-0.8c0.5,0.5,0.9,1.1,1.3,1.6c-0.1,2.6,1.2,5,1.2,7.6c0.9,4,0.8,8.1,1.8,12c0.8,3,0.5,6,1.1,9
	c0.5,2.5,0.2,5.2,1.5,7.4c0.9,0,1.6,0,2.5,0c1.1-2,2.3-4.1,3.4-6.2c-0.5-2.7-0.5-5.5-0.8-8.2c1.4-9.2,2.4-18.4,3.6-27.6
	c0.2-2.5,1.6-4.9,1.6-7.4c1.3-1.2,2.2-2.7,3.7-3.7c0.9-0.7,2-1.3,3-2C643.7,117.7,644,115.3,644.1,113z M599.6,111.6
	c1.7-0.2,3.5-0.6,5.2-1c0.5,0.5,1.1,0.9,1.6,1.3c0.3,1,0.7,2.1,1.2,3.1c-1,3.5-1.6,7.1-2.3,10.7c-0.5,3.1-3.4,4.9-5.6,6.7
	c-0.6-0.8-1.3-1.6-1.9-2.3c-0.1-4.2-0.5-8.4-0.5-12.6C597.8,115.6,598.8,113.6,599.6,111.6z"/>
<path class="st0" d="M522.9,161.2c-1.3-1.2-2.2-2.8-4-3.2c-0.8-0.6-1.5-1.3-2.2-2c-1.1-0.5-2-1.2-2.7-2.2c-1.8-1.8-3.6-3.7-4.7-6
	c-0.9-1.9-1.7-3.8-2.7-5.6c-1.6-3.1-2.1-6.6-3.6-9.7c1.1-0.6,2.1-1.3,3.2-1.9c0.6-1.8,1.3-3.6,1.9-5.4c0.8-2.8,2.3-5.4,2.2-8.4
	c-0.4-3.5-1.3-7.2-3.6-10c-1.2-1.2-3-1.3-4.5-2c-1.6,0.7-3.9,0.5-4.6,2.5c-2.1,4-2.4,8.8-2,13.2c0.2,2.8,2.3,5.2,1.9,8.1
	c-0.2,1.6-1.6,2.7-2,4.3c-1.5,3.1-2.3,6.8-4.9,9.3c-1.3-3.7-0.9-7.6-1.4-11.4c-0.6-3.8-0.5-7.5-0.9-11.3c-0.4,0-1.3-0.1-1.6-0.1
	c-3.4,2.4-5.5,6.2-8.5,8.9c-1-3.8,2.1-6.7,4-9.6c1.9-3.2,4.2-6.3,5.6-9.7c2.1-3,1.6-6.7,2-10.1c0.6-2.9-1.6-5.2-3.3-7.3
	c-0.1-0.3-0.2-1-0.3-1.3c-1.1-1-2.5-1.7-4-2.1c-0.2-0.2-0.4-0.7-0.5-0.9c-2-0.9-3.8-2.2-6-2.5c-2.8-0.5-5.6-1.3-8.5-2
	c-4.2-1.2-8.5-1.6-12.7-2.3c-2.1-0.3-4.3-1-6.5-0.5c-0.9-0.2-1.7-0.6-2.6-0.7c-1.3,0.3-2.3,1.2-3.7,1c-1.6,0.2-2.8-1.4-4.5-1.2
	c-2.3,0.2-3.3,2.6-5,3.8c-0.3,1.8-0.5,3.6-0.8,5.5c-0.2,1.3-0.9,2.4-0.9,3.8c0.1,4.8-0.4,9.6-0.2,14.3c0.2,3.6,0.2,7.2,0,10.8
	c-0.3,4.9,0.2,9.9-0.3,14.7c-0.4,6.5-0.8,13-1.6,19.4c0.1,2.5,0.5,5.1,0.6,7.6c2.1,0.5,3.3-1.1,4.4-2.5c-0.8-5-0.5-10.2,0.5-15.2
	c1.6-9.9,0.2-20.1,1-30.1c0.3-4.3,1.6-8.5,1.8-12.8c0.1-4.4,2.6-8.1,4.3-12.1c1.8,0.6,3.4,1.6,5.4,1.5c3.2,0,6.3,1.3,9.6,1.3
	c5,0,9.9,1.4,14.7,2.2c2,0.2,3.6,1.8,5.7,2c2.6,0.4,4.9,1.4,7.1,2.8c0.5,1.5,1.2,2.9,1.3,4.5c0,2.4-0.2,4.9-0.5,7.4
	c-0.8,3.5-3.1,6.3-5.4,9c-1.6,2.9-3,6-4.8,8.9c-1.7,2.3-3.7,4.5-5.2,7.1c-3.5,5.6-7.4,11-11,16.7c-1.7,3.5-3.7,6.9-5.6,10.3
	c-0.4,0.9-0.5,1.9-0.8,2.8c0.6-0.2,1.3-0.3,2-0.5c2.1-2.2,3.5-4.9,5.5-7.4c3-4.6,7.1-8.5,9.9-13.3c1.2-1.5,3.1-2.1,4.5-3.3
	c1.8-1.7,3-3.9,4.7-5.7c1.6-1.6,2.5-4.2,5-4.5c0.2,4.8,0.5,9.6,0.7,14.3c0.2,3.8,1.3,7.4,1.3,11.1c0.3,1.8,4,3.1,4.5,0.9
	c1.7-3.4,3.1-7.1,5.2-10.3c1.4-2.5,1.7-6.4,4.9-7.2c0.6,2.7,1.5,5.5,2.7,8.1c0.9,2.7,3.1,4.7,5,6.7c2.6,2.5,5,5.2,7.5,7.8
	c1.1,1,2.5,1.4,3.8,2c1.6,1.9,4.1,2.9,6.3,4c1.8,1.1,4,1.7,6.1,1.1C529.3,164.4,525.9,163.2,522.9,161.2z M500.9,126
	c-1-4.3-1-8.8-0.8-13.2c0.1-1.3,0.6-2.4,1.1-3.7c1.5,0.2,2.5,1.3,3.4,2.3c0.7,1.7,1.8,3.4,1.3,5.4c-0.2,2.2-1.7,3.9-2.7,5.8
	C502.6,123.9,502.3,125.4,500.9,126z"/>
<path class="st0" d="M825.7,114.8c-0.5-2.6-1-5.2-1.2-7.8c-0.3-0.3-0.6-0.6-0.9-0.9c-0.5-3.1-0.8-6.3-1.6-9.5
	c-0.4,0.1-1.3,0.2-1.7,0.3c-3.2,2.7-3.4,7.1-5.2,10.7c-0.9,3.4-2.8,6.6-3.1,10.2c-0.9,3.6-0.8,7.4-1.8,11c-0.5,5.2-1,10.5-2.2,15.6
	c-0.7,2.7-1.8,5.2-2.5,7.8c-2.5-1.2-2.8-4.2-3.6-6.5c-1-3.1-0.9-6.4-1-9.7c-0.3-6.9,2-13.5,2.7-20.3c0.5-3.1,0.6-6.3,1.2-9.5
	c0.8-2,2-3.9,2.6-6c-3.4,0.2-4.5,4-5.3,6.7c-0.8,4-2.3,7.8-3,11.7c-0.7,3.7-1,7.4-2.3,11c-1.2,4.3-2,8.8-4.4,12.6
	c-2,4.3-3.4,9.1-6.3,13c-1.5,1.6-3.5,0.2-5.1-0.5c-1.5-3.1-3.9-5.6-5-8.9c-0.3-2.3-0.7-4.8-0.8-7.2c0.6-2,1.7-4,2.7-5.9
	c1-2,3.2-2.8,4.2-4.8c2-3.7,5-6.9,6.2-11c0.9-3.5,1.5-7.1,1.6-10.8c0.5-0.9,1.1-1.7,1.6-2.7c-0.4-0.7-0.7-1.3-1.1-2
	c-2.6-0.5-5.2-1-7.8-2c-1.9-0.8-3.8,0.3-5.6,0.9c-2,2.7-3.8,5.9-3.8,9.3c-0.2,3.4-0.6,6.9-0.2,10.3c0,5.7-0.2,11.4-1,17.1
	c-0.2,2.3,0.2,4.5-0.3,6.7c-0.5,2-0.5,4.2-1.6,5.8c-0.5,0.6-0.9,1.7-1.9,1.4c-0.9-1-1.8-2.2-2.7-3.3c-1-3.7-2.2-7.3-3.7-10.9
	c-1.6-5.3-2.1-10.9-4-16.1c-0.8-3.1-1.4-6.1-1.3-9.2c-0.2-5.9,0.2-11.8,0.7-17.6c0.6-7.5,1.3-15,2-22.6c0.2-2.8,1.1-5.5,1.1-8.3
	c-0.6-0.1-1.3-0.2-2-0.2c-0.9,4.8-2.3,9.5-2.4,14.4c-0.9,9.4-2,18.8-2.9,28.1c-3.1-0.2-6.3,0.2-9.2,1.2c-2.7,1.3-4.3,4-6.5,6
	c-2.7,2.3-4.3,5.5-5.8,8.7c-2,4.4-5.2,8.4-6,13.2c-1,5.8-1.4,11.8-3.7,17.3c-1.2,3.7-1.2,7.8-3.8,10.8c-1-0.5-2-1-3-1.5
	c0.2-3.7-1.3-7.1-1.9-10.7c-1.4-3.7-0.5-7.7-0.9-11.5c0.1-3.7-0.3-7.3-0.6-10.9c0.3-6.2,0.6-12.5,1.9-18.6c1.3-4.3,5.2-7.1,6.7-11.3
	c0.5-0.7,1.2-1.3,1.4-2.3c1-3.9,1-8,1.8-12c1.5-5.2,0.3-10.8-1.3-15.9c-0.4-1.5-0.9-2.9-1.8-4.2c-4.2,0-8.6-1.5-12.8-0.1
	c-1.5,2.3-3.8,4-4.9,6.7c-1.3,2.7-0.9,5.8-1.1,8.8c-0.2,1.8-0.2,3.7-0.2,5.6c-0.2,5.6-0.8,11.2-0.5,16.8c0.2,0.2,0.7,0.8,0.9,1.1
	c-0.2,3.3,0.9,6.4,1.8,9.5c0.5,1.8-0.1,3.6-0.3,5.3c-1.8,0-3.7,0-5.4-0.7c-2.7-2.1-4.4-5.2-6.7-7.7c-2.9,2-5,4.8-7,7.6
	c-1.9,2.7-3.6,5.4-5,8.3c-0.9,2.2-1.4,4.5-2.4,6.6c-2,3.8-3.2,8.1-5.1,12.1c-1.3,3.9-3.1,7.7-5.4,11.2c-1.3,2-1.6,6-4.8,5.6
	c-1.7-1.3-2.5-3.7-2.6-5.8c0.2-6.5,1.5-12.9,2-19.3c-1.8,1.1-2.8,2.9-3.9,4.5c-2,3.4-4.5,6.7-7.5,9.2c-0.9,0.9-2,0-2.9-0.2
	c-1.5-5.8,0.5-11.5,1.7-17.1c0.4-1.7,1.5-3.2,2-4.9c0.7-2.3,1.3-4.5,2.7-6.5c1.9-3.5,4-7,6.8-10c1.5-1.4,3.2-2.5,4.9-3.8
	c-0.2-0.3-0.5-1.1-0.6-1.4c-0.4,0-1.2,0-1.6-0.1c-2.3,2-5,3.8-6.5,6.5c-1.3,2-2.7,3.8-4,5.8c-2.4,5.5-4.4,11.2-6.8,16.8
	c-1,3.2-2.5,6.3-2.9,9.6c-1.1,6.3-2.4,12.5-3.5,18.7c1.3,0.8,2-0.9,2.7-1.6c2.9-4.2,7.6-6.8,11.2-10.3c0.6,0.3,1.3,0.6,1.9,0.9
	c0.5,2.6,1.1,5.2,1.1,7.8c0,3.4,0.8,7,0.3,10.4c-0.7,4.4,0,9.1-1.6,13.3c-1.2,2.4-2.1,4.9-3.2,7.4c-2,4.4-5.2,8.5-5.2,13.6
	c1.4,1.8,2.5,3.8,4,5.6c3.9,3.9,9,6.1,14,8.1l3.5,0.3c-2.8-12.2-5.6-24.4-8.2-36.7c1.5-3.2,0.9-7,2.8-10.1c1-1.6,0.9-3.7,2-5.2
	c2.6-3.7,4.6-7.7,6.3-11.8c0.9-2.2,2.3-4.1,3.5-6.1c1.5-2.3,2.3-5.1,3.8-7.5c0.5-0.9,1.7-0.9,2.7-0.5c2,4.5,2,9.5,3,14.3
	c0.5,2.1,1.6,4.2,2.3,6.2c1.4-0.8,3.8-1.1,3.9-3.2c0.2-1.6,0.8-3.1,1.4-4.6c1.5-4.5,0.2-9.9,3.1-13.9c-0.1-0.3-0.2-1-0.3-1.4
	c1.3-6.2,1.3-12.6,2.3-18.9c2.3,0.9,4.9,1.6,7.2,2.8c2,1.1,2,3.5,2,5.5c0,4.5,0.3,8.9,0.4,13.4c1.3,1.5,1,3.5,1.3,5.3
	c1.8,3.3,1.3,7.1,2.6,10.6c1.9,4.6,2.4,9.9,5.8,13.9c0.5,0.1,1.5,0.3,2,0.4c2.7-3.1,3.8-7.3,4.6-11.3c0.4-2.3,1.4-4.4,2-6.6
	c0.2-1,0.7-1.9,1.3-2.7c0.6,0.2,1.3,0.5,1.9,0.7c1.7,3.4,3.4,6.7,4.9,10.2c1.3,0.3,2.5,0.6,3.7,0.9c2.8-1.6,5.3-3.5,8-5.3
	c0.5-2.7,0.6-5.6,1.8-8.1c2-4.9,3.1-10.3,3.8-15.6c0.5-3.7,2.1-7,4.1-10.2c0.7,0.5,1.6,1.1,1.9,2.1c1.7,5.6,1.8,11.7,4.6,17.1
	c2,5.7,4.9,11.1,6.7,16.9c0.8,2.3,0.2,6,3.3,6.7c0.6-3.4,1-6.9,1.6-10.3c0.3-1.8,2-2.7,3.4-3.3c3.9,4.3,8.1,9.2,13.9,10.7
	c1.3-1.6,2.6-3.1,3.7-4.9c2-1.6,1.6-4.4,2-6.7c0.2-2.1,0.9-4.2,2-6c2.4,2.1,2.1,5.3,2.5,8.2c2,5.2,1.6,11.3,5.3,15.7
	c0.9,0,2-0.2,2.9-0.4c0.9-2.3,2.2-4.3,3.5-6.3c-0.1-0.3-0.2-0.9-0.4-1.1c0.2-6.5,2.1-12.8,2.7-19.2c0.2-2,0.8-4.2,0-6.1
	c0.1-4,0.2-8,0.9-11.9c1.2-2.6,1.6-5.4,2-8.2c0.6-0.1,1.3-0.1,1.9-0.2c1.8,1.1,3.7,2.3,4.3,4.5c0.2,2.7,1.9,5.2,3.8,7
	C827.4,122.9,826.1,118.8,825.7,114.8z M658.7,191.2c0.5,4.5-0.2,9.5,2.2,13.7c0.1,0.4,0.2,1.1,0.2,1.5c1.3,1.6,1.2,3.8,1,5.7
	c-1.6,0-3.3,0.1-5,0.1c-1.3-1.3-3.1-2.3-3.4-4.2c-0.7-3.2-1.8-6.6-1.2-9.9c0.8-2.5,2.3-4.7,3.8-6.9
	C657.1,191.3,657.9,191.3,658.7,191.2z M690.2,137.7c-0.7,2.1-0.9,4.3-1.4,6.4c-0.8,0.5-1.8,0.9-2.7,1.5c-2.5-1.6-3.3-4.9-3.7-7.7
	c-0.1-7.8,1.6-15.9,6.2-22.4c1.1,0.3,2.6,0.4,3.2,1.6c1.3,2.2,1.1,4.9,1,7.4C692.4,128.9,691.7,133.4,690.2,137.7z M710.5,99
	c-1.3-0.9-2.5-2-3.3-3.4c-0.2-3.1,0.2-6,0.5-9.1c0.5-3.7,0.6-7.5,2.3-10.9c0.7-1.6,1.4-3.1,2.2-4.6c0.5-0.2,1-0.4,1.5-0.6
	c0.8-1.7,2.7-1.7,4.2-1.7c0.8,3.9,0.5,7.9,0,11.9c-0.7,4.2-1.3,8.5-2.7,12.7c-1.1,2.5-1.4,5.3-2.9,7.7
	C711.6,100.4,711,99.7,710.5,99z M753.4,117.6c-0.6,2.3-2.3,4.2-3.7,6.3c-2.8,3.7-3.2,8.5-5.3,12.5c-1.5,3.6-3.3,7.1-4.1,11
	c-0.5,3-2.1,5.6-3.8,8.1c-0.5,0.8-1.3,1.3-2.1,1.7c-1.7-3.9-3.6-7.7-5.1-11.7c-0.2-3.1,0.2-6.3,0.2-9.5c-0.2-3.1,1.5-5.9,2.9-8.5
	c1.1-2.3,2.3-4.6,3.8-6.7c2-3.4,4.1-7.1,7-10c1.3-1.1,2.8-2,4.1-3.1c2.3,0.1,5.2,0,6.8,2C754,112.2,753.7,114.9,753.4,117.6z
	 M777.7,111.4c0.1-1.7,1.2-3.1,1.9-4.5c1.6-0.9,3.4-1.7,5.3-1.4c2.5,2,2.3,5.2,2.3,8.1c-2.6,4.6-4.2,10.3-8.9,13.3
	c-0.6-1.5-1.7-2.9-1.6-4.6C777,118.6,777.5,115,777.7,111.4z"/>
<g>
	<path class="st1" d="M86,254.8c2.3-1,3.4-3.8,5-5c2.1-4,4.4-7.6,7.3-11.1c0-2.5,2.9-3.4,3.1-5c2.7-1.9,2.7-5.2,5.5-6.3
		c0.4,0,0.6,0.2,0.8,0.4c0.8,2.7-2.5,4.8-2.5,7.1c-0.4,3.6-4.4,4.2-4.6,7.3c-3.8,2.5-3.8,7.3-6.7,9.6c0,1.3-1,1.7-0.8,2.5
		c0.2,0.2,0.8,0,1.3-0.2c0-0.4-0.4-1.5,0-1.5c7.6-6.9,10.9-16.1,17.2-24.5c1.5-3.4,3.8-6.1,5.2-8.8c0.4-0.4,1-0.8,1.9-0.8
		c0.8,6.3-5.2,10.3-6.7,16.1c-1.5,1.5-0.4,2.9-1.5,3.8c1.5-2.1,2.9-4.4,4-6.7c1.5-2.5,2.1-6.5,4.8-6.7c0.4,5-4.6,9.9-5.2,15.3
		c-0.2,0-0.6-0.2-0.8,0c-1.9,1.9-1.5,5.2-2.1,6.9h-0.6c0,0.6-0.4,1-0.2,1.7c3.6-5,6.3-12.4,10.1-17.8c1.9-6.1,5.5-11.5,6.5-17.4
		c-23.7-10.7-38.4-34.8-42.6-59.4c-2.9-0.4-5.7-0.8-8,0.2c-2.1-0.6-4-0.2-5.7-0.8c-2.7,0.6-5.5,1-8.2,0.8c-0.4-0.6-1-1-1.9-0.6
		l-0.2,0.2c-0.2,0.6-1,1-1.9,1c-6.3-1.5-12.8-0.2-18.7-2.1c-9-0.2-18.5-2.5-26.6-0.2c16.1,1.3,34.6,2.7,51.2,3.8
		c1.9-1,4.2-1.5,6.3-1c0.4,0.6,0,1.7-0.6,1.9l0,0c-1.9-0.4-2.5,0.8-4.2,0.2c-1.5,1-3.1,0-4.2,0.6c-10.5,1.9-20.1-0.4-30.4,1.5
		c-7.1,0-14.5-1-20.8,1.9c4.8,1,10.5,0.2,15.5,0.4c6.5,0.8,12.4-2.5,18.5-1c0.2,0.4,0.2,0.8-0.2,1c-1.9,0.8-4.2,0.8-4.8,2.5
		c8,0,17-3.8,24.5-2.5c0.2,0.8,0.8,0,0.4,1c-2.9,1.3-6.3,1.5-9.4,1c-1.9,0.4-3.6,1-5.2,1.9c-6.3,0-12,2.1-18.2,2.3
		c-0.4,0.6-0.4,1.3-1.5,1.3c-2.5-0.2-4.8,0-7.3,0.8c-3.1,1.5-7.6,0.8-9,3.6c16.8,0,33.6-5.9,50.3-7.1c4.4-1,8.2-2.5,12.2-2.1
		c0.4,0.2,0.2,0.8-0.4,1c-2.5,2.5-5.9,0.2-7.6,2.7c-1.5,0.6-3.1,1-4.6,1.5c-4.6,0-9,1-13.2,2.9c-2.5-0.6-4.4,0.4-6.5,0.6
		c-2.1,1.7-6.1,0.4-7.6,2.5c0,0.2,0,0.4,0.2,0.6c8,0.6,15.7-2.3,24.1-3.1c7.8-0.6,15.3-5.5,22.7-4.2c0.2,1-0.4,1.9-1.3,2.1l0,0
		c-3.8,0-6.7,1.7-10.1,2.1c-2.5,1.3-4.8,1-6.7,2.3c-2.7,0.4-5.2,1.5-7.6,1.7c-3.1,1-5.9,1.3-8,2.3c-2.9,1.5-6.1,1-8.8,2.5
		c-0.2,0-0.4,0.2-0.6,0.2c3.4,0.8,7.1-1,10.7-1.3c2.7-0.4,4.4-1.9,6.7-1.5c1.9-0.4,4-1.7,5.7-0.8c0.2,0.8-0.8,1-0.2,1.9
		c3.4,0.2,6.7-2.1,10.5-2.5c3.4-1.5,6.1-1.5,9-3.4c0.6-0.2,1.3-0.2,1.9,0.2c0.4,2.1-2.5,2.5-3.6,3.6c-4.6-1.5-8,2.5-11.7,2.9
		c-1.3,0.8-2.7,1.5-4.2,2.1c-3.8-0.2-5.9,2.5-9.4,2.5c-2.3,1-3.8,2.5-5.7,2.3c-0.8,0.6-1.7,1.7-2.3,1.5c-1.7-0.4-3.4-0.4-4.8,0.2
		c-0.8,0.8-1.3,1-1.3,1.5c-1-0.4-1.3,0.8-2.3,0.8c-0.6-0.8-1.3,0-2.1,0.2c-4.6,2.5-10.3,2.5-14.1,6.3c3.6,1.3,6.9-2.1,10.3-2.5
		c4.2-2.3,9-2.5,12.8-4.2c4.6-0.2,7.3-3.4,11.1-4c4.6-2.5,9.4-2.9,14.3-4.8c3.1-0.8,5.5-2.5,8.2-1.5c0.2,0.2,0.4,0.2,0.8,0.4
		c-0.4,1.7-2.7,1.7-4,2.7c-1.7,0.6-3.4,1.3-5,2.1l-1,0.2c-4,2.1-8.4,2.7-11.7,4.6c-2.9,0.8-5,2.7-7.6,3.4c-2.5,0.6-4,4-6.3,3.6
		c0.4,0.4-0.2,0.8-0.6,1c-0.2-0.2-0.4-0.4-0.8-0.6c-0.6,0-0.6,0.6-0.2,1c3.6,1.3,7.6-0.8,11.1-2.1c2.9-2.1,6.5-2.3,9-4.2
		c3.8-0.8,7.3-2.5,10.5-4.6c3.8-1.9,7.8-1.9,10.9-4.6c0.6,0,1.3,0.2,1.5,0.8c0.2,0.8-1,1.9-1.9,2.3c-5.2,0-7.1,4.8-11.5,5
		c-3.4,0.8-4.6,4.2-8,4.2c-1.3,1.3-2.9,0.8-3.8,1.7c-0.8,0.2-0.2,1-0.6,1.5c-0.4,0.4-1.3-0.4-1.7-0.4c-1.3,0.8-3.4,0.6-3.8,2.5
		c-1.5,0.2-2.5,0.8-4.2,1c-1.3,1.9-4,1.3-4.6,3.4c-2.9,0.2-4.2,2.7-6.9,3.6c-0.2,0.4-0.6,0.8-1,1c1.5-0.4,3.8-0.2,4.6-1.9
		c4.6-3.4,10.1-4,14.7-6.5c2.5-2.3,5.9-2.5,8.2-4.2c5.7-1.9,11.1-4.2,16.4-6.9c1.9-1.7,4.6-3.1,6.9-2.1c-0.2,1.5-2.5,2.1-3.8,2.7
		c-3.6,0.8-5.2,4.2-8.2,4.6c-1.9,2.7-6.1,1.7-7.3,4.6c-2.3,0.4-4,2.1-5.9,2.9c-1.7,1.5-3.4,1.7-4.6,2.7c-0.2,0.8-0.4,1.5-0.8,1.3
		c-0.8-0.2-1,0.8-2.1,0.8c-0.4-0.2-0.8-0.2-1,0c-1.7,2.1-4.4,1.7-5.9,3.1c-0.2,0.2-0.2,0.4-0.2,0.8c-3.1-0.4-5.7,2.9-9,3.6
		c-2.1,1.7-5.2,1.5-5.9,4.4c6.9-1.7,14.9-5.9,21.4-9.6c-0.2-0.4,0.2-0.8,0.2-1.3c5-1,8.4-5.7,13.6-6.7c5.9-3.8,12.2-7.3,18.5-10.5
		c0.8,0.6,0.8,1.9,0.4,2.1c-3.1,2.1-6.9,3.8-8.8,6.3c-0.2,0.8-0.2,1-0.4,1.5c-0.6,0.4-1.3-0.4-1.9-0.4c-2.5,1.7-5.9,2.3-8.4,4.2
		c-2.5,2.3-5.2,4-8.4,5.2c-1.3,1.3-2.9,2.5-4.6,3.4c-4.6,0.8-7.8,4.8-12.2,6.5c-0.6,0.8-1.7,1.5-1.5,2.1c5.5-3.6,12-4.8,17.2-8.4
		c5.2-2.1,9.4-5.5,14.1-7.8c5.9-4,12.2-6.5,17.4-10.5c2.7-0.6,4.6-3.8,6.9-2.9l0.6,0.6c-1.3,1.7-3.1,2.1-4.4,3.6
		c-7.3,4-15.1,7.8-20.8,12.4c-0.8,0.4-2.1-0.8-2.7,0.4c0,0.8,1.3,0.8,1.3,1.5s-1,1.9-1.9,2.7c-2.9,1.7-5.2,3.8-8.4,4.8
		c-2.5,0.6-3.4,2.5-5.2,3.4c-0.6,1.9-3.1,1.7-4,3.1c2.1,0,3.4-2.1,5.5-2.3c5-3.1,9.4-6.1,13.8-9.2c1.9-0.8,3.6-1.9,5.2-3.1
		c2.1-1.7,4.2-4.2,6.9-3.8c0.6,1.3-0.4,2.9-1.5,3.8c-3.4,0-4,4-7.6,4c-2.1,2.9-6.1,2.7-7.8,5.2c-1.3,0.6-2.3,1-2.7,1.9
		c5.9-1.9,10.5-8,16.8-9c-2.7,4.2-7.8,7.1-12,10.7c-1.5,0.8-3.1,1.7-3.6,2.9c14.1-6.9,27.9-18.2,41.1-26c0.4,2.9-4,3.6-4.6,6.3
		c-3.4,0-3.8,2.5-6.1,2.5c-1.5,1.7-3.4,3.1-5.5,4c-0.2,0.8,0,1.9-0.6,2.3c-2.5-0.6-3.6,2.7-6.1,3.4c-2.9,3.6-6.7,5.2-9.4,8.8
		c5.2-2.5,10.1-6.9,15.3-10.1c4.8-5,11.7-8,16.4-12.8c1-0.8,2.3-0.8,2.7,0c-0.8,4-6.3,4.6-7.8,8.4c-3.6,0.2-4.8,3.1-7.3,4.4
		c-1.9,1.7-3.1,3.6-4.4,4.8c-3.4,1.5-5.2,4.4-8.8,5.2c-0.8,0.8-1.7,1.5-2.7,1.9c0.2,0.4,0,0.6,0,1c-3.6,1.9-6.9,2.9-9.2,5.9
		c-0.8,1.3-1.7,2.3-3.1,2.1c-0.6,1-2.5,1.7-2.5,3.4c6.3-2.7,12-7.3,17.6-11.1c3.8-2.9,7.6-6.1,11.1-9.4c3.1-2.9,6.7-5.7,10.3-8.2
		c2.1-2.1,4.6-3.8,7.3-4.6c0.6,0.4,1,1.3,0.6,2.1c-2.1,1-2.9,2.7-4.8,3.1c-0.8,3.1-4.6,3.4-6.5,5c0,0.4,0.6,0.4,0.6,0.8
		c-1,1-2.9,1-4,2.7c-2.7,1.5-3.1,4.4-6.1,4.8c-2.7,2.1-4.2,4.8-6.9,6.1c-2.1,3.6-6.5,4.6-8.8,7.3c-1.9,1.7-3.8,3.1-5.7,4.4
		c-0.2,0.2-0.2,0.4-0.4,0.6c3.1-0.2,4.8-4,7.8-5c0.6-0.8,1.5-2.1,2.5-1.7c0.8,0.8,1,1.9,0.6,2.3c-1.3,1-3.8,2.1-3.6,3.8
		c8.4-6.1,16.4-14.3,24.3-20.1c1.7,1.7-1,3.4-1.7,4.6c0.8-0.2,1.3-1.3,2.3-0.8c0.6,0.6,0.8,1.9,0,2.5l-0.2,0.2
		c-2.5,5.5-6.3,8.8-9.4,13.8c-2.9,2.1-1.9,5.9-5.2,7.1C84.9,254.8,85.6,254.8,86,254.8L86,254.8z"/>
	<path class="st1" d="M191.7,254.2c0.4-3.8-1.3-7.3-1.3-11.1c-1-2.7-2.1-6.1-1-8.4c0.8,1.3,0.8,2.7,1.7,4c0.2,2.1,1.9,2.7,1.5,4.6
		c0.6,2.1,1.5,4.2,2.5,6.3c0.2-7.3-3.6-14.3-3.6-21.4c1.9,0.4,2.3,3.1,3.4,4.4c0.4-0.2,1.5-0.2,1.5,0.4c1.9,2.9,0.8,6.3,2.7,9
		c0.2,3.1,1.3,6.1,3.1,8.4c0.2,0.2,0.6,0.4,0.8,0.4c1.5-6.9-1.5-14.3-2.9-21.4c-0.8-2.5-2.1-5-1-6.7c3.4,5,3.1,12.6,6.3,18.2
		c0.8,3.6,2.3,6.5,2.7,9.6c0.2,0.6,0.4,0.8,0.6,1c0.8,0,1-0.6,0.8-1.5c0-4-1.9-6.9-2.5-10.5c-1-5.9-3.6-11.1-4-16.8
		c0.2-0.4,1.3-0.4,1.3,0.2c4,6.7,5,14.9,9.4,21.4c0.2-2.5-1.5-4.6-1.9-6.3c-0.6-2.1-1.3-4.2-2.3-6.3c-1-4.8-2.9-8.6-3.8-13.2
		c-0.4-1.5-1.5-2.5-0.8-3.4c0.8-1,1.9-0.4,2.1,0.2c1.5,2.5,0.8,4.8,2.7,6.7c2.3,5.2,4,11.5,8.2,14.9c-0.2-4.8-4.8-7.8-5.7-12.4
		c-1.5-1.5-2.3-3.6-2.5-5.7c0-0.2,0-0.4,0.2-0.8c2.9,0.8,2.9,5.5,5.7,7.3c2.7,4,3.4,8.4,6.9,11.1c1,3.6,2.9,6.7,5.7,9.4
		c0.4-2.3-2.3-3.8-3.1-6.3c-4-5.5-7.1-11.5-9.2-18c0.2-0.4,0.8,0,1,0.4c1.7,4,4.6,6.5,6.1,10.1c4.2,4.4,6.3,10.9,10.5,14.3
		c-1-3.8-4.8-6.7-6.3-10.9c-0.8-1.9-2.3-2.7-1.9-4.2c1.7-0.2,2.5,2.5,3.8,3.6c4,4.8,7.6,10.7,12.4,14.5c-2.5-5.7-8-9-10.1-14.9
		c-4-4.6-7.1-9.6-9.4-15.3c-0.2-0.2-0.2-0.4-0.2-0.8c1.9-0.2,3.1,1.9,4.2,3.1c4.6,6.5,9.6,12.4,14.5,18.2c1.5,0.6,2.3,1.7,3.4,1.9
		c-3.6-5-8.4-9.6-11.7-15.1c-1.9-0.8-1.9-3.1-3.6-4.6c-1.3-1.7-2.5-3.4-3.8-5c-1.9-1.5-2.5-4-4.2-4.6c-1.9-2.3-3.6-4.8-4.6-7.6
		c0-0.2,0-0.4,0.2-0.6c4.6,2.5,7.1,8,11.5,11.1c2.1,4,5.7,6.1,7.6,9.4c2.5,1.9,3.1,3.6,5.2,4.6c-2.9-3.6-5.7-8.2-8.6-11.7
		c-2.5-4.4-7.1-6.7-7.8-11.1c9,6.3,15.7,18.9,26,24.5c-1-2.1-3.6-3.6-4.8-5.9c-2.3-1.5-4.2-3.6-5.2-6.1c-5.7-4.6-9.2-10.3-13.8-14.9
		c-0.2-0.4-0.4-0.8-0.4-1.5c3.6,0,5.5,4.8,9,6.3c5.9,5.9,12.6,10.9,17.4,17.4c1.5,0.6,2.5,1.9,3.8,1.9c-1.3-4.2-6.3-5.9-8.8-9.6
		c-2.3-2.3-4.6-3.4-6.5-5.9c-3.1-3.4-5.2-6.3-8.2-9.2c-2.9-2.9-6.3-5.7-7.6-9.4c0.8-0.8,2.1-0.8,2.5-0.4
		c14.5,9.2,26.4,22.7,40.5,32.1c-3.4-7.1-12.8-8-15.3-15.3c15.9,8.6,30.6,23.1,47,32.1c-0.8-2.5-4.6-2.9-5.5-5.5
		c-2.3-2.5-5.2-3.8-7.1-5.9c-4.8-2.3-8-6.7-12.4-9c-1.7-1.7-3.1-2.5-4.2-3.8c-4.6-1.7-6.7-5-10.7-7.1c-0.2-1.5-1.3-1.9-1-2.9
		c6.9,2.3,13,7.3,19.7,10.7c4.4,3.6,9,6.9,13.8,10.1c4.4,1.9,7.1,5.7,11.5,6.7c0.4-0.6-0.4-0.8-0.8-1c-5-3.8-9.6-8.8-15.1-11.3
		c-1.3-4-6.5-3.4-8-6.5c-2.5-1.3-4.8-3.6-7.6-4c-1.5-2.5-4.2-1.9-5.2-4c-2.3-1-4.4-2.3-6.3-4c-0.4-0.6-0.6-0.8-0.6-1
		c3.1-0.4,6.1,2.9,9.6,3.4c0.4,0.8,1.3,1.3,2.1,1c0.4-0.2-0.4-1.3-0.8-1.3c-2.7-2.7-6.9-2.5-8.6-5.5c0-0.4,0.2-0.6,0.2-1
		c0,0,0.6-0.4,1-0.4c2.5,2.1,5.5,3.8,8.4,5.2c4,2.1,6.7,5,10.7,6.3c10.1,5.9,18.9,13.2,28.3,18.9c1.9,0.2,2.9,2.3,4.4,1.7
		c-1-1.5-3.1-1.5-4-3.1c-0.2,0-0.4,0.4-0.8,0.6c-2.9-1.7-4.4-4.8-7.8-5.9c-1.3-2.3-4.4-2.1-4.6-4.2c-4.4-0.8-6.7-4.6-10.3-5.5
		c-1.3-2.5-4.4-3.6-5.7-5c-1-0.8-2.1-1.3-3.6-1.5c-0.8-2.1-3.4-2.9-4.8-4.4c-3.1-0.4-4.4-3.4-7.1-4c-1.9-2.3-4.4-2.9-6.1-5
		c-2.7,0-2.7-3.4-5-3.1c-0.6-1.3-1.7-2.3-2.9-2.9c-0.2-0.2-0.2-0.6,0.2-0.8c0.2,0,0.2-0.2,0.4-0.2c3.6,1.9,7.1,3.6,10.7,5
		c8.2,5.2,18.5,6.9,25.6,13c-0.2,0.8-1,1.3-1.5,1c-2.9-1.7-5.9-3.1-8.8-4.4c1.9,5,8.8,5.2,12.6,9c12.2,5,23.5,10.7,34.8,15.7
		c0.6-0.4-0.2-1.7-0.8-1.9c-2.9-1.7-6.5-2.9-8.8-4.8c-2.9-0.8-5.2-2.5-8-2.7c-2.9-3.4-7.6-3.4-10.3-6.1c-1.3-0.2-2.1-0.2-2.3-1.3
		c0-0.6,0.2-0.8,0.6-1c1.9,0.6,4,0.8,5.9,0.8c-4.4-1.7-8.4-5-13-6.7c-5.9-3.6-12-5-16.4-9.4c-3.1,0-3.1-3.6-5.9-2.7
		c-2.1-2.7-5.9-2.3-8-4.4c-1,0-1.9,0-2.3-0.6s0-0.6,0-1c-4.6-1.7-8.4-5.2-13-7.1c-1.5-0.6-3.1-1-2.9-2.7c6.7,1.9,13.2,5.9,19.7,8.6
		c2.7,1,4.4,2.3,6.7,3.4c12.8,8.4,26.8,13.2,39.6,20.1c1,0,2.1,0.2,2.9,0.8l-3.4-1.9c-1.5-0.8-3.1-1.7-4.6-2.5
		c-2.5-0.6-3.8-2.7-6.3-2.7c-2.9-2.3-5.9-3.6-8.6-5.7c-1.3-0.4-1.9-0.6-2.3-1.7c0-0.4,0.2-0.6,0.2-0.8c1.3-0.2,2.7,0.8,4.4,1
		c5.7,2.9,11.3,5.9,16.8,8.8c3.6,1.5,6.9,3.8,10.3,3.1c-2.5-1.9-5.2-3.1-8.2-4c-2.3-3.1-6.7-2.7-9.2-5.7c-3.6-1.7-6.7-2.3-10.1-3.8
		c-2.3-2.7-6.1-2.3-7.6-5c-3.8-2.5-8.4-2.5-11.5-5.2c-2.3-1.3-5.7-1.5-6.1-4c5.7-0.4,10.5,4.4,16.8,5.5c4.4,2.5,9.2,4.2,14.3,5.5
		c-2.5-1.5-5.2-1.9-7.6-3.6c-2.7-0.2-4.2-2.3-6.5-2.5c-4-2.7-8.4-3.8-12.4-5.5c-1-0.2-2.1,0-2.5-1c-0.2-0.8,0.8-1.3,1.5-1.3
		c6.5-0.2,10.5,5.9,16.6,5.5c-0.4-1.3-2.3-0.8-2.9-2.1c-1.9-0.2-3.6-1-5-2.1c-3.1-0.6-4.8-2.7-7.6-3.4c-0.8-1.3-2.3-2.1-3.8-2.5
		c-0.2-0.4,0.4-0.8,0.6-0.8c6.9,1.7,13,4.4,19.9,5.9c5.9,2.7,11.7,4,17.6,6.1c1.3,0.4,2.5,0.2,3.8-0.2c-3.4,0-5.5-2.7-9-3.6
		c-0.2,0.4-1.3,1.3-1.9,0.4c-0.4-0.2,0-0.4-0.2-0.8c-3.4-1.3-7.6-4.4-11.5-4.2c-1.3-0.8-2.9-1.3-3.6-2.5c0-0.2,0-0.4,0.2-0.6
		c4.2,0.4,9,2.9,13.4,3.1c2.1,1,4,0.8,5.5,1.9c4,1.5,8,1.5,11.5,2.9c-1.7-2.1-4.8-1.5-6.7-3.6c-2.3-1-4.4-0.2-6.1-1.7
		c-3.6,0-5.9-2.7-9.2-3.1c-2.1-2.3-5-0.8-7.1-2.7c-3.1,0-5.2-2.1-8-1.7c-2.3-1-4.4-0.2-6.1-1.3c-2.5,1-4.6-0.4-6.3-1.7
		c-0.4,0-0.4,0.6-0.6,0.6c-0.8,0.2-1.9-0.2-2.3-1c-0.8-2.1-3.6-1.3-4.2-3.6c0.2,0.2,0.2,0.8-0.2,1.5c-0.8,0.2-1.7-0.2-1.9-1
		c1.3-2.5,4.2-0.8,6.1-1c4.6,1.3,8.6,1.3,12.8,2.7c6.3,0.4,12.2,4,18.2,2.3c-0.8-1.7-2.3-2.7-4.2-3.1c-2.7-0.6-4.6,0.6-6.7-0.8
		c-1-0.2-2.1,0.4-2.5-0.4c0-0.8-1.3,0.6-1.7,0c-0.4-0.6-0.6-0.8-0.6-1.3c-1.9-0.8-4-0.6-5.7,0.2c-0.6-0.2-0.4-0.8-1-1
		c-1.9,0-2.9-1.9-5-1.3c-1.9-2.3-5.7-0.8-7.6-3.1c-1.5-0.2-2.5-0.2-2.9-1.3c-0.2-0.2-0.2-0.6,0-0.8s0.4-0.2,0.6-0.2
		c6.3-1.3,12,2.5,17.4,1.5c5,2.3,10.5,1.3,15.5,2.1c-0.4-0.4-0.8-0.8-1-1.5c-2.9,0.8-5-2.3-8-1.3c-0.2,0.2-0.6,0.4-1,0.6
		c-0.8-0.6-0.4-1.9-1.7-2.3c-0.6,0.2-1.3,1.3-2.1,0.8c-1.5-1.3-3.8-1.3-5.2-1.9c-0.8,0-1.5,0.8-2.3,0.2s-1.7-1.5-1.5-2.3
		c4.2,0,8.2,0.4,12.2,0.8c2.9,0,5,1.5,7.6,1.5c2.3,0.8,4.6,0.4,6.7,1.7c2.7-0.8,5.7,0.8,8-1.3c-1-1.5-3.6-0.4-4.8-2.1
		c-6.1-0.8-11.5-1-16.8-1.7c-4-0.8-7.6,0-11.1-1.3c-2.7-2.1-6.3-0.2-8.8-2.1c-0.2-0.8,1.3-1.3,1.9-1.5c6.5-1.3,12.6-0.8,19.1-1.5
		c-2.7-1.3-6.1-0.2-9.2-0.6c-1.9-0.4-4-0.6-6.1-0.6c-2.7-1-5.9,2.1-8,0.4c0.2-1.3,1.3-2.1,2.5-2.1c3.8-0.4,7.3-0.2,10.3-1.7
		c-3.4-1.7-7.3,0.4-11.1-0.4c-1,0-1.7,0.4-2.3,0s-0.8-1.3-0.2-1.7c4.4,0.2,7.8-1.9,11.3-2.3c0.4-0.4,0.4-0.4,0.4-0.4
		c-5-0.2-10.1,1.7-15.1,0.8c-0.2-0.2-0.2-0.8,0-1s0.4-0.2,0.6-0.2c5.9-1.9,11.3-2.5,17-4c-3.8-0.4-7.6,0.6-11.3,0.8
		c-2.9,1.5-5.9,0.6-8.4,1.9c-1.5-0.4-2.9,0.2-3.6-0.6c4-2.9,9.6-2.5,14.3-4.6c0.2-0.4-0.2-0.8-0.8-0.6c-5.2,1.5-10.5,2.7-15.3,1.7
		c-0.6-0.6-1-1.7-0.4-2.1c4.2-1,7.8-2.9,12-3.8c1.7-0.8,3.4-0.8,4.4-1.9c-1.9-0.6-4-0.6-5.7,0.2c-2.9,1-6.7,2.1-9.4,1
		c2.7-2.7,7.6-2.5,10.9-4.6c-2.3-1.3-4.4,1.7-6.7,0.8c-0.6-0.6,0.4-1.5,0.8-1.9c1-0.6,1.9-0.8,2.5-1.7c-1.9-1-4.2,0.8-5.9,0.2
		c-2.3,1-4.8,1.5-7.3,1.5c0-1.3,1.5-1.7,2.3-1.9c2.7-0.6,5.2-2.1,7.3-4.2c-0.8-0.8-1.9,0-2.5,0.4c-2.3,0.6-4.6,1.3-6.1,0.2
		c0.8-1.5,2.3-2.3,2.9-3.6c0.8-0.2,1.5-0.2,1.5-0.8c-4.4-0.4-8,3.8-11.7,4.4c-0.8-0.6-0.2-1.7,0.2-2.1c2.7-1.7,5.2-4,7.3-6.3
		c-2.3,0.2-4.8,2.7-7.1,2.1c-0.2-2.3,3.6-2.9,3.6-5c-3.6,0.6-5.9,4.4-8.8,5.7l-0.4-0.4c0-3.4,4.4-5,4.8-8.4
		c-1.5,0.4-2.3,2.1-3.1,3.1c-1.5,1.7-2.5,4.6-4.6,4c-0.4-4,5.2-7.1,5.7-11.1c-2.9,1.5-2.9,5.2-5.9,6.7c-0.4,0-0.6-0.2-0.8-0.4
		c0.8-3.4,2.1-6.5,3.8-9.4c-4.2,2.9-5.9,9.2-10.7,12.2c18.5,19.7,26,49.3,17.2,75.1c-7.8,22.2-25.6,39.4-48,46.6
		c-3.6,0.8-6.7,1.5-10.1,2.1c-2.1,4.8,0.8,10.1,1,14.9c2.1,5.5,2.1,10.9,4.2,15.9c0.2,0.8,0.2,1.3,0.8,1.5c0-4.2-2.1-9.6-1.9-13.8
		c-1.3-3.6-0.2-6.5-1.3-9.4c0-1-0.4-1.9,0.4-2.7c0.6,1.3,1,2.7,1.3,4c0.4,4,0.8,8.4,3.1,11.1c0.8-1.9-0.8-5,1.5-6.7
		c0.2-1.9-0.8-3.6,0.2-5c2.9,2.1,1.5,6.1,3.4,9.2c-0.4,3.1,1.9,4.8,1.9,7.6c1.5,2.9,0.4,6.5,2.7,8.2
		C191.5,254.4,191.7,254.2,191.7,254.2L191.7,254.2z"/>
	<path class="st1" d="M141.6,253.5c0.8-2.9,0.8-6.3,2.3-9c0.4-0.4,0.6,0,1.3,0.4c0.4-3.6,1-6.7,1.7-10.3c2.5,2.5,0.6,6.1,1.7,9.2
		c0.8,0,1-0.8,0.8-1.5c0.4-4-0.6-7.6,1-10.7c0.6-0.6,1.5,0,1.5,0.8c0.8,4.4-0.4,9,1,13.2c0.2,1,0.2,2.1,0.2,2.9c2.3-3.6,1-9,2.3-13
		c-0.6-3.1-1-6.5-0.8-9.9c0-0.4,0.2-0.8,0.2-1.3c0.8-0.4,1.5,0.2,1.5,1c1.3,4.8,2.1,9.6,2.3,14.7c1.3,3.6-0.6,6.7,0.8,9.9
		c1.7-7.8-0.2-16.8,1.3-25.2c1.5,1.7,0.4,4.8,1.5,7.1c0,3.6,0.2,6.9,1.3,10.3c0.8-3.4,0-7.3,0.4-11.1c0.2-0.2,1-0.2,1,0.4
		c1.3,5.9,0.2,12,1.3,17c0.8-7.3,0-15.1,0.4-22.2c3.1,5.7,1,14.3,3.8,20.8c-0.2,1.9-0.2,3.8,0,5.7c1-7.8-0.2-15.9-1.5-23.9
		c-0.4-2.5-1.5-4.6,0-6.3c0.2-0.2,0.6,0,0.8,0.2c0,0,0,0.2,0,0.4c0.4,9.6,2.7,18.7,4,27.9c0.2,0.4,0.4,0.8,0.6,1
		c-0.4-5.2,0-12-1.3-17.4c-1-4.6-0.4-8.4-2.1-12.2c0.2-1.5,0.8-2.1,0-2.9c-13.8,2.5-28.5-0.8-41.7-5c-0.8,3.8-2.5,7.3-4.6,10.5
		c-0.8,4.6-4.4,7.6-4.2,12.4c2.1-2.1,2.5-5.9,4.4-8.8c1.5-3.4,2.5-6.1,3.6-9.2c0.2-0.2,0.4-0.6,0.6-1c0.4,0,0.8-0.2,0.8,0.2
		c0.2,2.7-1.5,4.8-1.9,7.3c-2.7,3.8-1.9,8.2-4,12.2c0.2,2.5-1.7,3.8-1.5,5.9c1.9-1,2.1-4.6,3.6-6.5c-0.4-1.9,1.3-2.7,1.7-4.4
		c0.4-2.5,1.5-4.8,2.9-6.9c0.2-0.2,0.6-0.4,0.8,0c0.2,2.1-0.8,4.2-0.8,5.9c-0.8,4-0.6,7.8-1.9,11.1c0,1,0,1.9-0.2,2.9
		c1.9-4.2,2.7-9,4.4-13.4c0.4-0.6,0.6-1.3,0.8-2.1c0.6-3.4,1.7-5.9,2.3-8.6c0-0.4,0.4-0.8,0.4-0.8c0.6-0.4,0.8,0.6,0.8,1.3
		c-0.6,3.8-0.8,7.8-0.8,11.7c-0.4,4.4-1.9,8.2-2.1,12c2.5-1.5,1-4.8,2.5-7.3c0-1.5-0.4-2.5,0.4-3.6c0.4-0.2,1-0.2,1.5,0
		c0.4,3.8,0.4,7.8,0.4,11.5c1-1.7,0.4-4.2,1.5-5.7h0.6c1,3.8-0.6,8.4-0.2,12.4C141.1,253.8,141.6,253.5,141.6,253.5L141.6,253.5z"/>
	<path class="st1" d="M277.5,245.6c-5.9-7.1-12.4-15.7-20.1-21c-2.1-1-2.5-3.8-4.2-4.2c1,2.9,4.4,5,6.3,7.8c3.4,2.9,5.7,6.3,8.4,8.6
		c3.6,3.6,5.7,7.6,9.4,9.4L277.5,245.6L277.5,245.6z"/>
	<path class="st1" d="M330.9,221.5c0.4-1.3-1.3-1.9-1.9-2.3c-5.7-1.5-10.3-5.9-15.3-6.7c-0.4,0.8,0.6,1.7,1.5,1.9
		C320.7,216.4,325.9,221.9,330.9,221.5z"/>
	<path class="st1" d="M47.8,161.5h1.9c-1-0.2-2.1-0.2-2.9,0.2C47,161.5,47.4,161.5,47.8,161.5L47.8,161.5z"/>
	<path class="st1" d="M74.7,151.2c3.1-1,6.9,1.5,9.9-0.2c0.6-5,1-9.9,0.8-14.9c-21.8-4.2-43-9.4-64-14.5c-3.1-1.9-6.5-1-9.2-1.5
		c-1,0-1,0.4-1.5,0.2c-0.4-0.2-0.8-0.8-1.3-1.5c-0.2,0-0.6-0.2-0.8-0.4c-0.2,0.4-0.6,1.5-1.7,1c-1,0-1.7-0.6-2.5-0.6
		c-0.4,0-0.8,0.2-1,1c3.6,4.2,10.7,2.7,15.7,5.5c3.4,0.2,6.5,1.7,9.4,1.7c5.2,0.6,10.5,2.1,15.3,4.2c4.6,0,8,2.3,12.2,2.1
		c3.6,2.1,6.9,0.8,10.1,2.5c4-0.4,7.1,1.7,10.7,1.9c2.3,2.1,5,0.4,7.1,1.7c0.4,0.4,0.2,1-0.4,1.3c-1.3,0.4-2.3,0.8-3.4,0.4
		c-0.2-0.4,0.2-0.4,0-0.6c-1.9,1.3-4.2-1.9-6.3,0c-2.9-1.9-6.5-0.4-9.2-2.5c-1.3-0.4-2.7,0.2-3.1,1.5c-1.5-2.1-3.8-3.1-6.3-2.5
		c-0.2,0.4-0.8,1-1.3,0.6c-3.1-0.8-6.1-2.1-9-3.4c-1.3-0.6-1.3,0.6-2.3,1c-0.4,0-0.4-0.4-0.8-0.6c-1.9,0.4-3.1-1.5-5.2-0.6
		c-4.8-1.3-9.9-1.7-14.7-1.3c5,1.9,11.5,2.7,17.4,4.6c5.2,0,9.4,1.5,14.3,1.5c3.6,2.1,7.3,0.8,10.3,3.1c0,0.8-0.4,1.7-1.3,1.9
		c-1.5-0.2-2.9-0.8-4-1.9c-0.8,1.3-2.5,1-4.2,0.8c-1.7,0.2-3.1-1-4.4-0.2c4.2,1.7,9,1,12.8,2.7c0.2,0.8-0.4,0.2-0.2,1
		c-3.4,1.7-6.7-1.9-10.9-0.6c-3.1,0-6.3-0.4-9.4-1.3c-6.9-1.5-13.8,0-20.6-1c-3.1-0.2-6.5-0.2-9.6,0.2c-1.3,0.4-2.5,0.2-3.4-0.8
		c-0.4-0.8-0.4-1-0.8-1.3c-1,1-2.5,1.7-4,1.7c-0.2-0.2,0-0.8-0.4-1c-0.4,0.4-0.8,0-1.3,0.4c3.8,1.9,8.6,1.3,12.8,2.5
		c5,0,10.3,1.9,14.9,1.9c4.4,1.3,8.2,0.2,12,1.3c3.1-0.2,5.7,0.8,8,0.4c3.4,0,6.7,0.8,9.4,2.5C65,151,69.8,150.8,74.7,151.2
		L74.7,151.2z"/>
	<path class="st1" d="M86.4,133.4c4.4-19.3,16.1-36.3,32.9-46.8c25.2-14.9,56.2-15.1,81.4-0.4c4.8,2.1,7.8,7.3,12.2,8.2
		c3.8-3.6,6.9-7.6,9.4-12c0-0.2-0.2-0.4-0.4-0.6c-0.8,0-1.7,0.6-2.1,1.5c0,1.5-0.4,2.3-1.3,2.7s-1.7,0.2-2.1-0.6l0,0
		c0-1.9,2.3-3.6,1.9-5.2c-1.5-0.2-2.5,1.5-2.9,2.1c-0.2,1.5-1,2.7-2.5,3.6c-0.6,0-1-0.2-1.5-0.6c0-2.5,4.2-4,3.8-6.5
		c-3.6-0.4-4,6.1-8,5.5c-0.8-2.5,2.7-4.2,2.9-6.5c1.5-1,2.3-2.1,2.1-3.6c-0.2-0.2-0.2-0.4-0.2-0.8c-2.9,0.8-4,6.1-7.8,6.1
		c-1.5-2.9,4.4-4.8,3.1-8c-2.7,0.4-2.3,4.6-4.8,5.5c-0.6,0-1,0-1-0.2c-0.4-2.9,3.6-4.2,2.7-7.3c-1.3,0.8-1.5,3.1-3.1,3.1
		c-0.4-1.5,2.3-3.6,1.9-5.7c-0.2-0.4-0.6-0.4-1-0.2c0,0,0,0-0.2,0.2c-1.3,0.8-1,2.3-2.1,3.1c-0.2,0-0.8,0-1-0.2
		c-0.2-1.3,1.7-2.7,1-4.4c-1.7,0.8-2.1,5.2-5,4.4c-1-2.7,3.1-4.4,2.1-7.3c-2.1,1.5-2.9,5.7-6.3,5.7c-0.8-0.2-1-0.2-1.3-0.8
		c0.8-3.1,3.4-5.9,2.9-9.4c0,0-0.6-0.2-0.2-0.2c-2.7,2.3-2.9,7.1-6.3,9.2H185c-0.6-2.3,1.5-4.8,1.5-7.3c1.9-2.5,0-4.6,0.4-6.7
		c-2.1,3.8-3.1,8.6-6.3,12H180c0-3.6,2.1-7.1,1.5-11.1c0.6-1,1.3-2.1,0.8-3.1c-0.8,2.3-1.7,4.6-2.7,6.7c-0.6,2.3-1.7,4.6-3.1,6.7
		c-0.4,0.2-0.8,0-1-0.4c1-6.3,1.9-12.6,2.3-19.1c-2.1,2.7-1.3,6.7-3.1,9.6c-0.6,3.8-1.9,7.1-3.8,10.5c-0.2,0.2-0.4,0.2-0.6,0.2
		c-2.1-8.8,1-17.8,0-26.6c-2.5,7.8-2.7,17.8-5,25.8c-0.2-6.1,0-13.4-0.2-19.5c0.2-2.5,0.2-4.8,0.2-7.1c0-1.9-0.2-3.6-0.6-5.5
		c-0.2,1.5,0.4,3.1-0.6,4.8c-0.6,5.5-1.5,10.7-2.3,15.5c-0.4,0.4-0.8,0-1-0.6c0.4-5.2-1-10.3-1-15.3c-0.2-0.2-1.3-0.4-1-1.3
		c0.6-0.6,0-1.3,0.4-1.5c-2.5,4.6,0.8,10.3-1.3,15.1c-0.8,0.2-1,0-1.5-0.6c0.4-8.4-1.9-16.1-2.1-24.1c-0.4,10.1,1.5,20.6-0.6,30.6
		c0.2,0.6,0,1.5-0.2,2.1c-0.4,0.2-0.6,0-0.8,0c-1.7-6.7-0.8-13.2-1.5-19.7c-0.8-3.6-1-7.1-1.3-10.9c-1.5,11.3,0.6,23.9,0,35.9
		c-2.7-12.8-2.3-26.2-4.4-39.2c0.2-2.9-0.2-5.9-1.3-8.6c-0.2-0.2-0.4-0.4-0.8,0c0.2,7.1,1,13.8,1,20.8c1.7,9,2.5,18,2.1,27.3
		c-2.5-1.3-1.3-5.7-2.7-8.2c0-6.9-0.6-13.8-1.9-20.8c-2.5-4.4-0.2-9-2.5-13.2c0.2-2.1-0.4-4-1.5-5.9c0.2,13.8,4.2,27.3,4.2,40.7
		c0,0.4-0.8,0-1-0.2c-0.4-4.4-1.5-7.6-2.1-11.3c-1.3-1.7-1.9-3.6-1.9-5.5c0.8,5.9,2.7,11.7,2.9,17.6c0.6,1.3,0.6,2.7,0.2,4.2
		c1.9,1,0.6,3.4,1,5c-0.4,1.3-0.6,1.7-0.8,1.7c-0.8,0.2-1-0.8-1.3-1.5c-1-4-1.9-8-2.1-12.2c-1.5-2.5-0.6-5.7-1.7-7.3
		c-1.5-2.7-0.6-6.1-2.3-9c-1.7-6.1-2.1-12.8-3.4-18.5c-1.7-2.1-0.8-4.6-2.1-5.9c-0.6,3.6,2.1,8,1.5,12c1,2.5,0.2,4.6,1,6.3
		c0.2,4,1.9,6.9,2.3,10.5c0.8,2.3,0.8,4.2,1.5,6.3c1.9,7.1,3.4,14.1,5,20.8c0,0.8-0.6,1.5-1.5,1.3c-2.1-3.4-2.5-7.8-4.4-11.5
		c-0.8-6.1-3.1-11.3-3.4-17.2c-1.7-3.4-1.5-6.9-2.9-9.6c-0.6-2.5-1.9-4.6-2.3-6.7c-0.6-2.1-1.5-4-2.7-5.9c1.7,8,4.2,16.4,6.1,24.5
		c1,9.6,5.9,19.1,4.8,28.1c-1,0.4-2.1-0.2-2.3-1v-0.2c-0.4-4.8-2.5-9-3.8-13.2c-2.1-4.2-2.5-9-3.8-12.8c-2.7-7.6-4.2-15.1-6.9-21.6
		c0,6.3,3.4,13.2,4.6,19.9c2.5,5.2,1.9,10.5,3.8,15.3c0.8,5.9,5,11.3,2.7,17c-0.6,0.2-1.5-0.4-1.5-1c-0.8-6.3-3.8-10.7-4.6-16.4
		c-1.9-2.9-1.5-5.7-2.7-8.6c-1.7-4.6-1.5-8.8-3.4-12.6c-2.5-4.6-2.9-9.4-4.8-13.8c2.3,7.8,3.6,15.9,5.7,24.1
		c2.7,6.1,2.5,12.2,5.7,17.4c-0.4,3.6,1.7,6.7,0.8,9.4c-2.9-1.9-2.5-5.7-4-8.4c-1.9-3.8-1.9-7.8-3.1-11.3c0.4-2.1-1.3-3.8-1-5.5
		c-1.5-4.6-2.5-8.6-3.6-12.6c-0.4-3.8-2.5-6.3-2.5-9.6c-1.5-2.1-0.6-4.6-2.5-5.7c-0.2,1.9,1.3,4,1.5,6.1c0.8,3.1,2.5,5.7,2.1,8.6
		c-1.3,0.8-2.1-0.8-2.7-1.3c-0.6-2.7-1.3-5.5-2.3-8c-2.5-3.1-2.9-6.5-4.8-9.4c-0.2,1.3,1.3,3.1,1.3,4.8c1.9,3.6,3.4,7.3,4.4,11.3
		c2.5,4,2.5,8.8,5,12.2c0.8,1.3,1,2.9,0.4,4.4c-0.6,0.2-1-0.6-1.5-1.3c-0.6-3.1-2.9-4.4-3.4-7.3c-1-2.7-2.5-5.2-4.2-7.8
		c-0.2-3.4-2.5-5.2-3.4-7.6c-0.8-1.3-0.8-2.7-1.5-3.8c-2.3-3.1-3.8-6.5-5.9-9.6c-1.3-2.1-2.5-4.2-4-6.3c-0.4-0.2-0.6-0.4-0.8-0.6
		c1,2.7,2.9,5.2,4,8.4c1.7,1.9,2.1,4.6,3.8,5.7c1.9,8.4,8.4,14.9,9.4,22.2c-1.3,0.6-1.9-1.3-2.5-1.9C97.1,32.5,93.7,27,89.8,22
		c-0.6-1.3-0.8-2.1-1.7-2.5c7.1,15.3,17.4,31,23.7,47.8c-0.8,1-1.9-0.2-2.5-0.6c-1.5-3.1-3.4-6.3-5.2-9.2c-0.2-4.2-3.8-7.3-5-10.5
		c-1.7-2.3-2.3-4.6-4.2-6.7c-0.6-4.4-4.4-6.9-4.8-10.9c-1.9-0.6-1.3-3.4-3.6-4c-0.2-0.6-0.4-0.8-0.6-1c3.1,6.5,6.7,12.8,10.5,18.9
		c1.5,5.7,5,9.6,6.9,14.5c0.4,1.5,1.5,2.5,0.8,3.6c-1.9,0-2.3-2.1-3.4-3.8c-3.4-2.9-4.6-7.1-6.9-10.7c-2.7-1.9-3.4-5-5-7.6
		c-1.9-3.6-4-6.9-6.5-10.1c-0.2,0-0.4,0.2-0.4,0.4c1,3.1,3.6,5.5,4.6,8.2c2.1,2.9,3.6,6.3,5.5,9c0,0.2,0.2,0.6,0.2,0.8
		c-0.2,0.4-0.6,0.4-1,0.2c-1.3-1.9-4.2-2.7-4.4-5.7c-1.3-3.4-4-4.4-4.4-7.3c-1.3-1.5-2.7-2.7-4.2-3.8c-1.7-4.4-5-7.1-8-10.9
		c-0.2-0.2-0.6,0.2-0.2,0.8c1.9,2.3,2.9,4.8,4.6,7.3c2.5,2.7,4.6,5.2,6.7,8.2c1,2.9,3.4,4.6,4.8,7.1c2.9,3.1,4.6,6.9,7.1,10.1
		c3.1,3.8,5,7.8,8,11.5c2.5,1.5,2.9,4.4,4.6,5.9c0.8,1.3,1.5,2.5,0.4,3.6c-1.5-0.2-2.7-2.3-3.6-3.8c-1.7-4.2-6.3-4.6-7.8-8.2
		c-1.9-2.3-2.3-5.5-5.2-6.7c-1.9-2.5-5.2-3.6-6.7-6.5c-1.7-0.8-1.9-2.1-3.4-2.3c-0.4-0.8-1.5-1.3-1.7-1.9c0-2.7-3.6-3.4-4.2-5.7
		C67.1,35,64.2,27,57.5,23.7c0.4,1.9,2.9,2.7,3.4,5c4,2.7,5.5,7.6,9.4,9.4c1.9,1.3,2.5,3.1,3.6,4.4c4.2,3.8,6.3,8.6,9.9,12.2
		c5.9,6.7,12.4,11.5,17.2,18.7c2.1,1.5,2.7,4,4.2,5.5c0.6,1.7,1.9,2.5,1.9,3.8c-0.2,0-0.6,0.2-0.8,0.4c-1.7-1-2.7-3.6-5-4.2
		c-2.5-4-6.3-5.9-8.4-10.1c-2.9-1.9-4-4.8-7.3-6.1c-1.5-1.7-1.9-3.6-3.6-4.4c0-0.2-0.2-0.6-0.2-0.8c-0.4-0.8-2.1,0-2.1-1
		c-1-3.4-4.8-5.7-7.1-8.4c-2.1-3.1-4.8-5.2-6.3-8c-2.5-1-2.1-4-4.6-4.4c-1.3-2.3-3.4-4.2-5.7-5.2c0.8,5.2,6.9,7.8,9,12.8
		C75.7,55.7,88.5,66.8,96,80c-1.5,0.6-2.3-0.4-3.1-1.5c-1.9-2.9-4.4-5.7-7.3-7.8c-3.6-3.1-6.7-6.9-9.4-10.7c-0.6-1-1.5-2.3-2.3-3.4
		c-2.5-0.8-3.4-2.9-5.2-4.6c-1-1-1.9-2.3-2.5-3.8c-2.7,0-2.7-2.7-4.6-3.8c-1-3.4-4-4.8-5.2-8c-2.3-3.4-5-6.1-7.1-9.6
		c-2.3-2.5-3.1-6.9-6.5-7.8h-0.4c1,2.3,2.3,4.4,3.8,6.5c3.1,6.3,8.6,11.3,12.8,17c1.5,2.9,5,6.1,5,9c-4.6-2.7-5.7-9.9-10.5-12.6
		c-2.1-3.8-5.5-6.1-7.3-9.4c-2.5-2.7-3.4-6.3-6.5-8.8c-1.5-2.1-2.9-4-4.8-5.9c0.8,1.9,1.7,4.4,2.7,6.5c1.9,1.3,0,3.8,2.1,4.2
		c5.2,3.6,8.4,9,12.2,13.4c9,14.5,22.4,25,30.4,39c-4.6-0.4-6.3-6.3-10.5-8.6c-1-1.9-2.7-3.6-4.6-5c2.9,3.6,5.7,7.6,8.4,11.5
		c1.5,1.7,4.2,2.5,4.2,4.8v1.5c-1,0.4-1.3-0.8-1.9-1c-0.2,0.4-0.6,0.4-1,0.2c0,0,0,0-0.2,0c-0.6-1.3-0.8-3.1-1.9-3.4
		c0.2-0.8-0.2-0.8-0.8-0.8c-1-1.7-2.3-3.4-3.8-4.6c-1.5-2.1-4.2-2.1-4.2-4.6c-0.4-0.2-0.6-0.6-0.8-1c-0.4-0.2-0.8,0.8-1.5,0
		c-0.2-2.9-2.9-4.6-4-6.7c-0.6-0.2-1.5,0.2-1.9,0c-0.4-1.5-0.6-2.7-2.1-3.1c-3.1-2.7-4.8-6.9-8.4-9.4c-1.9-1.9-4-3.4-5.7-5.2
		c4.8,8.4,12.2,15.3,18.7,22.7c4,3.6,6.7,7.3,10.5,10.5c1.5,2.5,4,4.6,3.6,7.1c-2.7-1.7-5-5.2-8-7.3C69.6,83,78,87.4,82.6,94.8
		c1.9,1.5,4.6,2.7,4.8,4.8c-3.4,0.6-5.7-3.6-8.6-4.2c-2.5-2.5-6.3-3.1-8.4-5.7c-3.8-1.3-6.3-5.2-9.6-5.5c-1-1.7-3.1-1.3-4.2-2.7
		c-0.2,0.2-0.2,0.2-0.8,0.2c-0.6-0.6-1-1.3-1.3-1.9c-2.3,0.4-3.1-2.3-5.2-2.9c-4-2.3-7.8-5-10.9-8.4c-4.2-2.3-7.6-5.7-11.5-7.1
		c-0.2-1.3-1.9-0.8-2.3-1.5c6.5,8.4,16.6,13.2,24.1,20.3c1.9,0.8,2.7,2.3,4.4,2.7c0.6,0.4,0,1,0.6,1.3c11.7,5.5,21.2,14.1,32.3,21.4
		v1.5c-2.9,0-5.7-2.1-8.4-2.9c-3.1-2.3-6.3-2.5-8.8-5.2c-5.9-1.9-9.6-6.3-15.3-9c-1.5-3.6-6.1-1.5-7.1-4.4c-2.1-1.7-4.6-2.9-7.3-3.8
		c-1-0.2-1.7-0.8-2.1-1.7c-1.9-3.6-6.5-2.5-7.8-5.7c-2.7-0.2-4.4-2.3-6.7-2.3c4,3.8,8.8,7.1,12.6,10.9c3.6,1.3,6.3,3.6,9,4.4
		c3.4,2.1,6.7,4.4,9.9,6.7c11.1,4,19.7,11.5,29.2,17c0.2,0.4,0.2,0.6,0.4,1c-2.1,1.3-5.2-1.3-6.9-1.9c-8.8-4.6-15.3-11.1-24.3-14.9
		c-7.8-4-15.9-7.8-23.5-12.2c-0.4-0.4-0.8-0.6-1.3-0.6c-1.9-0.8-3.6-2.5-5-1.9c2.9,3.8,9.4,3.8,12.6,7.8c4.8,2.5,8.8,5.2,13.4,7.3
		c1.3,1.5,3.6,1.7,4.6,2.9c0,0.4-0.4,0.8-0.8,1l-8.6-3.1c0,0.2,0,0.6-0.4,0.6c-1.9-3.6-7.6-3.8-10.3-6.7c-2.1-0.4-4-2.5-6.3-3.6
		c-2.3-1-3.6-1.9-5.2-2.1c-3.6-2.5-7.3-3.6-10.5-6.1c-3.1,0-6.5-1.6-9-1.4c6.9,6.9,20.1,8.4,27.3,15.7c-0.6,0.8-1.9,1-2.9,0.4
		c-2.7-1-5.5-2.3-8-3.8c-2.5-1.9-5.5-3.1-8.6-3.4C9,86.4,8.4,86.8,8,87.4c0.8,0.6,1.7-0.8,2.3,0.2c2.9,2.5,6.7,3.8,10.1,6.1
		c5,1,9.2,4,13.8,4.8c8.8,4,16.4,9.2,25.4,10.5c6.9,3.6,13.6,5.7,20.1,8.8c1,0,1.9,0.2,2.1,0.8c0.2,0.6-0.8,1.5-1.5,1.3
		c-4.2-1.9-9.4-0.6-12.6-3.8c-2.7-1-4.2-2.5-6.7-2.5c-3.1-1.9-6.7-1.3-9-3.6c-5.5-0.2-9-5.7-14.7-5.5c-2.1-1.5-4.2-1.5-5.9-2.7
		c-2.5-0.4-4-2.1-6.1-2.1c-2.5-1.9-5-0.6-7.1-2.5c-1-0.2-1.9-0.4-2.9-0.8c3.1,1.5,6.1,3.4,8.4,5.9c-0.2,1.7-1.9,0.8-2.3,1.7
		c7.3,5.7,17.2,8.2,26.2,10.3c3.8,1,7.6,1.5,10.3,3.1c0.2,1.3-1,1.3-1.9,1.9c-4,0.2-7.1-1.7-10.5-2.1c-7.3-2.5-14.3-5.2-21.4-7.3
		c-5.9-0.6-11.3-4.4-16.6-2.9c6.7,2.9,13.8,5.5,21,7.3c8.6,1.9,16.4,4.8,25,6.3c0.8,0.4,1.3,1,1.3,1.7c-7.6,1.5-15.3-4-23.1-4.6
		c-1.7-1.3-3.6,0.4-4.6-0.8c-3.4-0.8-6.1-1.9-9.4-2.5c-2.9-1.5-5.7-0.6-7.8-1.9c-1.5,0-2.1,0.2-2.7-0.2c-0.6-0.4-0.8-1.5-1.5-1.5
		c0.4,0.8-0.4,1.3-1,1.7c1.7,1.5,4.4,0.4,5.7,2.9c1.9,0.6,2.9,1,3.8,2.3c9.6,0.4,19.3,5,29.4,6.1c5.7,2.3,12.6,1.9,17.8,5.2
		c8.4,0.2,16.8,3.4,25,4.6L86.4,133.4L86.4,133.4z"/>
	<path class="st1" d="M61.4,78.6c-2.7-1.9-3.6-5.7-7.3-6.7c-0.6-1.3-1.3-2.5-2.1-3.6c-2.7-2.3-5.2-4.6-7.6-7.1
		c-3.8-3.1-6.3-6.5-10.1-8.6c2.9,5,7.8,9.2,11.5,13.8c3.8,3.6,7.8,6.3,11.5,9.6C58.5,77.4,60,78.2,61.4,78.6L61.4,78.6z"/>
</g>
</svg>
